<svg width="40" height="56" viewBox="0 0 40 56" fill="none" xmlns="http://www.w3.org/2000/svg">
<path d="M23.771 28.5149L22.2856 30.0644L23.2123 30.9528L24.6977 29.4033L23.771 28.5149Z" fill="black"/>
<path d="M13.1436 24.028L11.9863 24.5835L14.6754 30.1859L15.8327 29.6304L13.1436 24.028Z" fill="black"/>
<path d="M20.4469 27.2537L19.2896 27.8092L20.4312 30.1877L21.5885 29.6322L20.4469 27.2537Z" fill="black"/>
<path d="M17.2802 27.2473L16.1372 29.6298L17.2946 30.185L18.4376 27.8026L17.2802 27.2473Z" fill="black"/>
<path d="M12.1989 25.4869C11.0861 25.4869 10.1816 24.5824 10.1816 23.4696C10.1816 22.3568 11.0861 21.4523 12.1989 21.4523C13.3117 21.4523 14.2162 22.3568 14.2162 23.4696C14.2162 24.5824 13.3117 25.4869 12.1989 25.4869ZM12.1989 22.7319C11.7946 22.7319 11.4612 23.0612 11.4612 23.4696C11.4612 23.8781 11.7905 24.2073 12.1989 24.2073C12.6074 24.2073 12.9366 23.8781 12.9366 23.4696C12.9366 23.0612 12.6074 22.7319 12.1989 22.7319Z" fill="black"/>
<path d="M18.8386 28.842C17.7257 28.842 16.8213 27.9376 16.8213 26.8248C16.8213 25.7119 17.7257 24.8075 18.8386 24.8075C19.9514 24.8075 20.8558 25.7119 20.8558 26.8248C20.8558 27.9376 19.9514 28.842 18.8386 28.842ZM18.8386 26.0871C18.4343 26.0871 18.1008 26.4163 18.1008 26.8248C18.1008 27.2332 18.4301 27.5625 18.8386 27.5625C19.247 27.5625 19.5763 27.2332 19.5763 26.8248C19.5763 26.4163 19.247 26.0871 18.8386 26.0871Z" fill="black"/>
<path d="M15.9792 32.7974C14.8663 32.7974 13.9619 31.893 13.9619 30.7801C13.9619 29.6673 14.8663 28.7629 15.9792 28.7629C17.092 28.7629 17.9964 29.6673 17.9964 30.7801C17.9964 31.893 17.092 32.7974 15.9792 32.7974ZM15.9792 30.0424C15.5749 30.0424 15.2415 30.3717 15.2415 30.7801C15.2415 31.1886 15.5707 31.5179 15.9792 31.5179C16.3876 31.5179 16.7169 31.1886 16.7169 30.7801C16.7169 30.3717 16.3876 30.0424 15.9792 30.0424Z" fill="black"/>
<path d="M21.7018 32.7974C20.589 32.7974 19.6846 31.893 19.6846 30.7801C19.6846 29.6673 20.589 28.7629 21.7018 28.7629C22.8147 28.7629 23.7191 29.6673 23.7191 30.7801C23.7191 31.893 22.8147 32.7974 21.7018 32.7974ZM21.7018 30.0424C21.2976 30.0424 20.9641 30.3717 20.9641 30.7801C20.9641 31.1886 21.2934 31.5179 21.7018 31.5179C22.1103 31.5179 22.4396 31.1886 22.4396 30.7801C22.4396 30.3717 22.1103 30.0424 21.7018 30.0424Z" fill="black"/>
<path d="M31.3207 30.9552C30.6955 31.3011 29.9786 31.497 29.22 31.497C26.8152 31.497 24.8562 29.5381 24.8562 27.1332C24.8562 24.7283 26.8152 22.7694 29.22 22.7694C31.6249 22.7694 33.5838 24.7283 33.5838 27.1332C33.5838 28.3461 33.0837 29.4464 32.2793 30.2383L33.067 31.2553C34.1715 30.2258 34.8634 28.7629 34.8634 27.1332C34.8634 24.0156 32.3335 21.4857 29.2159 21.4857C26.0983 21.4857 23.5684 24.0156 23.5684 27.1332C23.5684 30.2508 26.0983 32.7807 29.2159 32.7807C30.2745 32.7807 31.2623 32.4848 32.1084 31.9763L31.3165 30.9552H31.3207Z" fill="#0093FF"/>
<path d="M29.2204 24.8992C30.4541 24.8992 31.4543 25.9037 31.4543 27.1332C31.4543 28.3628 30.4499 29.3672 29.2204 29.3672C27.9908 29.3672 26.9864 28.3628 26.9864 27.1332C26.9864 25.9037 27.9908 24.8992 29.2204 24.8992ZM29.2204 23.6155C27.2781 23.6155 25.7026 25.191 25.7026 27.1332C25.7026 29.0755 27.2781 30.6509 29.2204 30.6509C31.1626 30.6509 32.7381 29.0755 32.7381 27.1332C32.7381 25.191 31.1626 23.6155 29.2204 23.6155Z" fill="#0093FF"/>
<path d="M9.88581 56.0001C8.5229 56.0001 7.40174 55.475 6.64735 54.4788C5.90546 53.4994 5.54702 52.1323 5.54702 50.2901V38.2282C5.54702 34.4812 6.44312 33.1183 7.44342 31.943C7.86021 31.4512 7.98941 31.3053 7.98941 30.7468C7.98941 29.8215 7.35172 29.4339 5.30111 28.667C4.7051 28.4461 4.08825 28.2127 3.50891 27.9251C1.63335 26.9873 0.341304 25.5077 0.0578861 23.9656C-0.150509 22.8403 0.174588 21.7733 0.999833 20.873C2.1335 19.6351 3.80067 19.5559 5.26777 19.4809C6.89325 19.4017 7.92689 19.2934 8.58542 18.4848C8.86051 18.1472 9.12725 17.7971 9.38149 17.4553C10.9945 15.3255 12.6658 13.1249 17.213 13.1249C19.8971 13.1249 22.4646 14.0335 24.3359 14.692C25.0987 14.9629 26.1031 15.3172 26.5866 15.3797C26.4908 15.0129 25.9864 13.8959 23.3481 11.3618C21.1016 9.20287 20.3514 6.26449 21.3892 3.68456C22.3062 1.40888 24.4485 -0.00820923 26.9867 -0.00820923C30.2127 -0.00820923 31.9049 1.20882 32.7593 2.23412C33.4928 3.10939 33.8679 4.1722 33.7637 5.03913C33.7387 6.06026 33.3094 6.93136 32.901 7.77744C32.1008 9.4196 31.4672 10.72 33.5429 13.1957C34.1305 13.9001 34.6724 14.5169 35.1975 15.113C38.1776 18.5098 39.9739 20.5604 39.9739 26.6164C39.9739 32.6723 35.6768 37.4529 27.8703 40.1913C22.5854 42.046 21.8977 42.817 18.1174 48.2645C14.3038 53.7536 12.4908 55.9918 9.88998 55.9918L9.88581 56.0001ZM17.213 15.6965C13.937 15.6965 12.9367 17.0177 11.4238 19.0141C11.1529 19.3684 10.8778 19.7352 10.5735 20.1103C9.14809 21.865 7.06414 21.965 5.39281 22.0484C4.32165 22.1025 3.31302 22.1484 2.89206 22.611C2.54196 22.9945 2.54196 23.2904 2.58364 23.503C2.71284 24.2115 3.56726 25.0868 4.65926 25.6328C5.11772 25.862 5.64705 26.0579 6.20555 26.2663C8.0436 26.954 10.561 27.8959 10.561 30.7468C10.561 32.2514 9.91915 33.0058 9.40233 33.6101C8.80215 34.3145 8.11862 35.1147 8.11862 38.2282V50.2901C8.11862 53.4369 9.31481 53.4369 9.88998 53.4369C11.057 53.4369 12.4866 51.8906 16.0126 46.8099C19.8471 41.2874 20.9808 39.9037 27.0242 37.7822C30.0418 36.7236 32.5592 35.2773 34.3014 33.6018C36.3645 31.6179 37.4107 29.2713 37.4107 26.6247C37.4107 21.5315 36.1144 20.0519 33.2678 16.8135C32.7593 16.2341 32.1841 15.5798 31.5798 14.8545C28.433 11.0993 29.7334 8.42763 30.5961 6.66044C30.9212 5.99358 31.2005 5.41841 31.2005 4.94326V4.82656L31.2172 4.7432C31.213 4.6265 31.1088 4.18887 30.6545 3.72624C30.1293 3.19274 29.0707 2.55922 26.9909 2.55922C25.4988 2.55922 24.2984 3.33862 23.7733 4.64318C23.2731 5.88521 23.3648 7.81912 25.132 9.51129C28.1204 12.3788 29.3249 14.2585 29.1665 15.7882C29.1124 16.3258 28.8581 17.0802 27.9745 17.6304C26.8867 18.3097 25.4613 17.8054 23.4899 17.1094C21.6977 16.4759 19.4637 15.6881 17.2213 15.6881L17.213 15.6965Z" fill="#0093FF"/>
</svg>
